# xmcd
#
# Track frame offsets: 
#        150
#        16270
#        32432
#        43940
#        55252
#        71862
#        85812
#        99622
#        112332
#        126197
#        143452
#        155917
#        168557
#        180155
#        192192
#        202152
#        216447
#        228040
#        239502
#        251407
#        262977
#        274325
#        286085
#        295690
#        307327
#        323885
#        337470
#
# Disc length: 4690 seconds
#
# Revision: 2
# Processed by: cddbd v1.5.2PL0 Copyright (c) Steve Scherf et al.
# Submitted via: ExactAudioCopy v1.3
#
DISCID=a312501b
DTITLE=Wynn Stewart - Wishful Thinking_CD08
DYEAR=2000
DGENRE=Country
TTITLE0=Don't Worry 'Bout That World
TTITLE1=She's The Nearest Thing To Perfect
TTITLE2=What A Good Time I Didn't Have Last Night
TTITLE3=Guess I'll Never Find Another You
TTITLE4=Sing That Sad Song Again
TTITLE5=Get All Your Love Together
TTITLE6=It Always Rains On Me (1975)
TTITLE7=Lonely Rain
TTITLE8=Just Now Thought Of You
TTITLE9=Seasons Of My Heart
TTITLE10=Don't Monkey With My Widow
TTITLE11=Whishful Thinking (1975)
TTITLE12=I'm Gonna Kill You
TTITLE13=After The Storm
TTITLE14=Playboy (1975)
TTITLE15=Sing A Sad Song (1975)
TTITLE16=Big, Big Love (1975)
TTITLE17=It's Such A Pretty World Today (1975)
TTITLE18=Whishful Thinking (2000)
TTITLE19='Cause I Have You
TTITLE20=It's Such A Pretty World Today (2000)
TTITLE21=It's A Beautiful Day (2000)
TTITLE22=Love's Gonna Happen To Me (2000)
TTITLE23=Eyes Big As Dallas
TTITLE24=Could I Talk You Into Lovin' Me Again
TTITLE25=I Was Raised Down On The Farm
TTITLE26=Such A Perfect World For Making Love
EXTD=
EXTT0=
EXTT1=
EXTT2=
EXTT3=
EXTT4=
EXTT5=
EXTT6=
EXTT7=
EXTT8=
EXTT9=
EXTT10=
EXTT11=
EXTT12=
EXTT13=
EXTT14=
EXTT15=
EXTT16=
EXTT17=
EXTT18=
EXTT19=
EXTT20=
EXTT21=
EXTT22=
EXTT23=
EXTT24=
EXTT25=
EXTT26=
PLAYORDER=
